<?xml version="1.0" encoding="utf-8"?>
<!-- Generator: Adobe Illustrator 15.1.0, SVG Export Plug-In . SVG Version: 6.00 Build 0)  -->
<!DOCTYPE svg PUBLIC "-//W3C//DTD SVG 1.1//EN" "http://www.w3.org/Graphics/SVG/1.1/DTD/svg11.dtd">
<svg version="1.1" id="Layer_1" xmlns="http://www.w3.org/2000/svg" xmlns:xlink="http://www.w3.org/1999/xlink" x="0px" y="0px"
	 width="595.281px" height="841.891px" viewBox="0 0 595.281 841.891" enable-background="new 0 0 595.281 841.891"
	 xml:space="preserve">
<rect y="144.563" fill="#242D3C" width="505.929" height="74.196"/>
<rect y="218.758" fill="#D9D8D7" width="505.929" height="431.728"/>
<g>
	<rect x="24.734" y="243.492" fill="#FFFFFF" width="456.46" height="382.26"/>
	<rect x="185.489" y="169.296" fill="#FFFFFF" width="233.856" height="24.728"/>
	<rect x="37.098" y="169.296" fill="#FFFFFF" width="24.727" height="24.728"/>
	<rect x="86.583" y="169.296" fill="#FFFFFF" width="24.728" height="24.728"/>
	<rect x="136.039" y="169.296" fill="#FFFFFF" width="24.737" height="24.728"/>
</g>
<g>
	<rect x="419.375" y="169.296" fill="#00B1FF" width="49.459" height="24.728"/>
	<rect x="61.772" y="521.696" fill="#00B1FF" width="382.378" height="13.415"/>
	<rect x="61.772" y="494.938" fill="#00B1FF" width="382.378" height="13.395"/>
	<rect x="61.772" y="468.121" fill="#00B1FF" width="382.378" height="13.415"/>
	<rect x="61.772" y="548.514" fill="#00B1FF" width="382.378" height="13.415"/>
	<rect x="61.772" y="575.302" fill="#00B1FF" width="382.378" height="13.415"/>
	<rect x="61.772" y="280.537" fill="#00B1FF" width="382.378" height="174.209"/>
</g>
<g>
	<polygon fill="#3E4959" points="432.195,344.259 405.476,344.259 397.617,383.303 440.052,383.303 	"/>
	<polygon fill="#3E4959" points="342.154,361.236 319.019,374.546 331.759,412.26 368.404,391.095 	"/>
	<polygon fill="#3E4959" points="272.629,421.046 259.319,444.035 289.11,470.401 310.269,433.681 	"/>
	<polygon fill="#3E4959" points="242.315,507.379 242.369,534.209 281.297,542.001 281.297,499.525 	"/>
	<polygon fill="#3E4959" points="259.319,597.479 272.629,620.543 310.269,607.84 289.11,571.179 	"/>
	<polygon fill="#3E4959" points="319.019,666.978 342.154,680.297 368.404,650.41 331.759,629.299 	"/>
	<polygon fill="#3E4959" points="405.476,697.327 432.195,697.327 440.052,658.25 397.617,658.25 	"/>
	<polygon fill="#3E4959" points="495.511,680.297 518.585,666.978 505.861,629.299 469.242,650.41 	"/>
	<polygon fill="#3E4959" points="565.029,620.543 578.312,597.479 548.521,571.179 527.376,607.84 	"/>
	<polygon fill="#3E4959" points="595.281,534.209 595.281,507.379 556.259,499.525 556.259,542.001 	"/>
	<polygon fill="#3E4959" points="578.312,444.035 565.029,421.046 527.376,433.681 548.521,470.401 	"/>
	<polygon fill="#3E4959" points="518.585,374.546 495.48,361.236 469.242,391.095 505.861,412.26 	"/>
</g>
<path fill="#242D3C" d="M418.744,381.678c-76.689,0-139.021,62.266-139.021,139.097c0,76.801,62.332,139.068,139.021,139.068
	c76.877,0,139.27-62.27,139.27-139.068C558.013,443.947,495.625,381.678,418.744,381.678z"/>
<circle fill="#FFFFFF" cx="418.869" cy="520.744" r="108.192"/>
<path fill="#16C6CC" d="M418.869,412.573v108.189h108.199C527.068,461.004,478.621,412.573,418.869,412.573z"/>
<g>
	<rect x="416.16" y="421.779" fill="#242D3C" width="5.396" height="10.831"/>
	<polygon fill="#242D3C" points="400.894,434.398 399.001,423.746 404.341,422.809 406.216,433.467 	"/>
	<polygon fill="#242D3C" points="386.179,438.842 382.453,428.672 387.558,426.812 391.257,436.981 	"/>
	<polygon fill="#242D3C" points="372.427,445.744 367.021,436.393 371.726,433.681 377.125,443.06 	"/>
	<polygon fill="#242D3C" points="360.101,454.956 353.15,446.67 357.3,443.203 364.263,451.477 	"/>
	
		<rect x="341.76" y="457.921" transform="matrix(0.765 0.644 -0.644 0.765 378.239 -115.3408)" fill="#242D3C" width="10.818" height="5.403"/>
	<polygon fill="#242D3C" points="341.134,479.023 331.773,473.612 334.5,468.922 343.849,474.351 	"/>
	<polygon fill="#242D3C" points="335.078,493.138 324.91,489.452 326.771,484.363 336.937,488.074 	"/>
	<polygon fill="#242D3C" points="331.56,508.123 320.908,506.229 321.845,500.903 332.494,502.79 	"/>
	<polygon fill="#242D3C" points="330.695,523.467 319.869,523.467 319.869,518.06 330.716,518.065 	"/>
	
		<rect x="323.985" y="531.612" transform="matrix(0.1728 0.985 -0.985 0.1728 799.1885 122.4533)" fill="#242D3C" width="5.414" height="10.819"/>
	<polygon fill="#242D3C" points="326.761,557.173 324.91,552.073 335.085,548.386 336.958,553.464 	"/>
	<polygon fill="#242D3C" points="334.5,572.604 331.773,567.926 341.15,562.512 343.849,567.203 	"/>
	
		<rect x="344.473" y="575.516" transform="matrix(0.6431 0.7657 -0.7657 0.6431 568.7329 -58.5425)" fill="#242D3C" width="5.409" height="10.822"/>
	
		<rect x="356.016" y="587.041" transform="matrix(0.7653 0.6437 -0.6437 0.7653 465.5498 -91.8524)" fill="#242D3C" width="5.421" height="10.822"/>
	<polygon fill="#242D3C" points="371.726,607.852 367.021,605.157 372.427,595.778 377.125,598.481 	"/>
	<polygon fill="#242D3C" points="387.558,614.715 382.453,612.872 386.179,602.705 391.257,604.553 	"/>
	<polygon fill="#242D3C" points="404.341,618.736 399.001,617.78 400.894,607.128 406.216,608.08 	"/>
	<rect x="416.16" y="608.964" fill="#242D3C" width="5.4" height="10.811"/>
	<polygon fill="#242D3C" points="433.4,618.736 431.519,608.071 436.857,607.128 438.718,617.78 	"/>
	<polygon fill="#242D3C" points="450.185,614.715 446.507,604.553 451.578,602.696 455.255,612.872 	"/>
	
		<rect x="460.246" y="599.087" transform="matrix(0.4988 0.8667 -0.8667 0.4988 754.9962 -101.9639)" fill="#242D3C" width="10.82" height="5.397"/>
	
		<rect x="473.559" y="589.737" transform="matrix(0.643 0.7659 -0.7659 0.643 624.7218 -155.3295)" fill="#242D3C" width="10.835" height="5.42"/>
	
		<rect x="485.16" y="578.219" transform="matrix(0.766 0.6429 -0.6429 0.766 488.2736 -179.4225)" fill="#242D3C" width="10.822" height="5.411"/>
	
		<rect x="494.5" y="564.866" transform="matrix(0.8659 0.5003 -0.5003 0.8659 351.0124 -173.9644)" fill="#242D3C" width="10.814" height="5.406"/>
	<polygon fill="#242D3C" points="510.98,557.173 500.81,553.452 502.658,548.379 512.824,552.073 	"/>
	<polygon fill="#242D3C" points="515.884,540.623 505.226,538.742 506.175,533.415 516.847,535.304 	"/>
	<rect x="507.031" y="518.065" fill="#242D3C" width="10.83" height="5.408"/>
	<polygon fill="#242D3C" points="506.175,508.123 505.226,502.778 515.884,500.903 516.841,506.229 	"/>
	<polygon fill="#242D3C" points="502.65,493.138 500.81,488.068 510.98,484.354 512.814,489.446 	"/>
	<polygon fill="#242D3C" points="496.564,479.002 493.88,474.33 503.242,468.922 505.951,473.618 	"/>
	
		<rect x="487.874" y="455.171" transform="matrix(0.6434 0.7656 -0.7656 0.6434 527.5696 -211.306)" fill="#242D3C" width="5.41" height="10.828"/>
	<polygon fill="#242D3C" points="477.591,454.956 473.457,451.471 480.408,443.182 484.574,446.67 	"/>
	<polygon fill="#242D3C" points="465.287,445.744 460.621,443.035 466.025,433.673 470.697,436.384 	"/>
	<polygon fill="#242D3C" points="451.562,438.842 446.494,436.976 450.193,426.812 455.246,428.672 	"/>
	<polygon fill="#242D3C" points="436.847,434.398 431.5,433.467 433.4,422.809 438.712,423.746 	"/>
</g>
<path fill="#FFFFFF" d="M431.837,520.759c0,7.18-5.793,12.986-12.965,12.986c-7.158,0-12.98-5.808-12.98-12.986
	c0-7.164,5.822-12.979,12.98-12.979C426.044,507.778,431.837,513.595,431.837,520.759z"/>
<g>
	<path fill="#242D3C" d="M418.869,538.076c-9.533,0-17.32-7.766-17.32-17.314c0-9.534,7.787-17.302,17.32-17.302
		c9.543,0,17.334,7.766,17.334,17.302C436.207,530.307,428.416,538.076,418.869,538.076z M418.869,512.092
		c-4.762,0-8.658,3.901-8.658,8.667s3.9,8.668,8.658,8.668c4.775,0,8.662-3.902,8.662-8.668S423.646,512.092,418.869,512.092z"/>
	<rect x="390.712" y="516.429" fill="#242D3C" width="15.164" height="8.652"/>
	<rect x="431.845" y="516.429" fill="#242D3C" width="49.799" height="8.652"/>
</g>
<path fill="#D9D8D7" d="M418.869,590.826c-9.533,0-17.32-7.762-17.32-17.319c0-9.534,7.787-17.302,17.32-17.302
	c9.543,0,17.334,7.766,17.334,17.302C436.207,583.063,428.416,590.826,418.869,590.826z M418.869,564.849
	c-4.762,0-8.658,3.893-8.658,8.658c0,4.771,3.9,8.652,8.658,8.652c4.775,0,8.662-3.885,8.662-8.652
	C427.533,568.738,423.646,564.849,418.869,564.849z"/>
</svg>
