<?xml version="1.0" encoding="iso-8859-1"?>
<!-- Generator: Adobe Illustrator 19.0.0, SVG Export Plug-In . SVG Version: 6.00 Build 0)  -->
<svg version="1.1" id="Layer_1" xmlns="http://www.w3.org/2000/svg" xmlns:xlink="http://www.w3.org/1999/xlink" x="0px" y="0px"
	 viewBox="0 0 512 512" style="enable-background:new 0 0 512 512;" xml:space="preserve">
<path style="fill:#5B5D6E;" d="M494.345,401.655H17.655C7.904,401.655,0,393.751,0,384V57.379c0-9.751,7.904-17.655,17.655-17.655
	h476.69c9.751,0,17.655,7.904,17.655,17.655V384C512,393.75,504.095,401.655,494.345,401.655z"/>
<path style="fill:#FFD782;" d="M467.862,322.207H44.138c-4.875,0-8.828-3.953-8.828-8.828V83.862c0-4.875,3.953-8.828,8.828-8.828
	h423.724c4.875,0,8.828,3.953,8.828,8.828v229.517C476.69,318.254,472.737,322.207,467.862,322.207z"/>
<polygon style="fill:#C7CFE2;" points="194.207,463.448 203.034,392.828 308.966,392.828 317.793,463.448 "/>
<polygon style="fill:#AFB9D2;" points="312.276,419.31 308.966,392.828 203.034,392.828 199.724,419.31 "/>
<path style="fill:#D7DEED;" d="M335.448,472.276H176.552c-4.879,0-8.828-3.948-8.828-8.828s3.948-8.828,8.828-8.828h158.897
	c4.879,0,8.828,3.948,8.828,8.828S340.328,472.276,335.448,472.276z"/>
<path style="fill:#FFC36E;" d="M467.862,75.034H44.138c-4.875,0-8.828,3.953-8.828,8.828v17.655c0-4.875,3.953-8.828,8.828-8.828
	h423.724c4.875,0,8.828,3.953,8.828,8.828V83.862C476.69,78.987,472.737,75.034,467.862,75.034z"/>
<path style="fill:#D7DEED;" d="M17.655,401.655h476.69c9.75,0,17.655-7.905,17.655-17.655v-26.483H0V384
	C0,393.75,7.905,401.655,17.655,401.655z"/>
<path style="fill:#959CB3;" d="M413.166,163.31h-0.893c-1.146-5.624-3.393-10.844-6.461-15.473l0.668-0.668
	c3.448-3.448,3.448-9.036,0-12.484c-3.447-3.447-9.036-3.447-12.483,0l-0.668,0.668c-4.629-3.069-9.849-5.314-15.473-6.461V128
	c0-4.875-3.953-8.828-8.828-8.828s-8.828,3.953-8.828,8.828v0.893c-5.624,1.146-10.844,3.392-15.473,6.461l-0.668-0.668
	c-3.447-3.447-9.036-3.447-12.483,0c-3.448,3.448-3.448,9.036,0,12.484l0.668,0.668c-3.069,4.629-5.314,9.848-6.461,15.473h-0.893
	c-4.875,0-8.828,3.953-8.828,8.828c0,4.875,3.953,8.828,8.828,8.828h0.893c1.146,5.624,3.393,10.844,6.461,15.473l-0.668,0.668
	c-3.448,3.447-3.448,9.036,0,12.483c3.447,3.448,9.036,3.448,12.483,0l0.668-0.668c4.629,3.069,9.848,5.314,15.473,6.461v0.894
	c0,4.875,3.953,8.828,8.828,8.828s8.828-3.953,8.828-8.828v-0.893c5.624-1.146,10.844-3.393,15.473-6.461l0.668,0.668
	c3.447,3.448,9.036,3.448,12.483,0c3.448-3.447,3.448-9.036,0-12.483l-0.668-0.668c3.069-4.629,5.314-9.848,6.461-15.473h0.893
	c4.875,0,8.828-3.953,8.828-8.828C421.994,167.263,418.043,163.31,413.166,163.31z M369.028,198.621
	c-14.603,0-26.483-11.88-26.483-26.483s11.88-26.483,26.483-26.483c14.603,0,26.483,11.88,26.483,26.483
	S383.631,198.621,369.028,198.621z"/>
<g>
	<path style="fill:#858AA0;" d="M369.028,145.655c-14.626,0-26.483,11.857-26.483,26.483c0,14.626,11.857,26.483,26.483,26.483
		c14.626,0,26.483-11.857,26.483-26.483C395.511,157.512,383.655,145.655,369.028,145.655z M369.028,180.966
		c-4.875,0-8.828-3.953-8.828-8.828c0-4.875,3.953-8.828,8.828-8.828s8.828,3.953,8.828,8.828
		C377.856,177.013,373.905,180.966,369.028,180.966z"/>
	<path style="fill:#858AA0;" d="M436.097,286.897v-1.626c3.062-1.092,5.834-2.723,8.262-4.793l1.428,0.825
		c4.215,2.44,9.621,0.991,12.061-3.233c2.44-4.224,1-9.621-3.233-12.061l-1.348-0.78c0.29-1.566,0.487-3.167,0.487-4.815
		s-0.196-3.249-0.487-4.815l1.348-0.78c4.233-2.449,5.673-7.853,3.233-12.061c-2.44-4.224-7.844-5.673-12.061-3.233l-1.428,0.825
		c-2.428-2.07-5.198-3.701-8.262-4.793v-1.624c0-4.879-3.948-8.828-8.828-8.828s-8.828,3.948-8.828,8.828v1.628
		c-3.062,1.092-5.834,2.722-8.262,4.793l-1.428-0.825c-4.215-2.44-9.621-0.991-12.061,3.233c-0.802,1.388-1.181,2.905-1.181,4.405
		c0,3.052,1.578,6.017,4.414,7.656l1.348,0.78c-0.29,1.566-0.487,3.167-0.487,4.815c0,1.649,0.196,3.249,0.487,4.815l-1.348,0.78
		c-2.836,1.637-4.414,4.604-4.414,7.655c0,1.5,0.38,3.017,1.181,4.405c2.44,4.224,7.844,5.673,12.061,3.233l1.428-0.825
		c2.428,2.07,5.198,3.701,8.262,4.793v1.624c0,4.879,3.948,8.828,8.828,8.828S436.097,291.776,436.097,286.897z M427.27,251.586
		c4.871,0,8.828,3.957,8.828,8.828c0,4.871-3.957,8.828-8.828,8.828c-4.871,0-8.828-3.957-8.828-8.828
		C418.442,255.543,422.399,251.586,427.27,251.586z"/>
</g>
<path style="fill:#AFB9D2;" d="M194.207,322.207c0-29.252,23.713-52.966,52.966-52.966s52.966,23.713,52.966,52.966h70.621v-8.828
	c0-4.875-3.953-8.828-8.828-8.828h-1.496c-1.273-8.226-3.389-16.157-6.312-23.706l1.26-0.728c4.223-2.438,5.67-7.837,3.231-12.058
	l-8.828-15.289c-2.438-4.223-7.837-5.668-12.059-3.231l-1.227,0.708c-5.155-6.392-10.976-12.212-17.368-17.368l0.71-1.228
	c2.438-4.222,0.991-9.621-3.231-12.058l-15.289-8.828c-4.222-2.438-9.621-0.991-12.059,3.231l-0.728,1.261
	c-7.55-2.923-15.48-5.038-23.706-6.312v-1.496c0-4.875-3.953-8.828-8.828-8.828h-17.655c-4.875,0-8.828,3.953-8.828,8.828v1.496
	c-8.226,1.273-16.157,3.389-23.706,6.312l-0.728-1.261c-2.438-4.222-7.837-5.668-12.058-3.231l-15.289,8.828
	c-4.222,2.438-5.668,7.837-3.231,12.058l0.71,1.228c-6.392,5.156-12.213,10.976-17.368,17.368l-1.227-0.708
	c-4.223-2.438-9.621-0.991-12.058,3.231l-8.828,15.289c-2.438,4.222-0.991,9.621,3.231,12.058l1.26,0.728
	c-2.923,7.55-5.037,15.48-6.312,23.706h-1.499c-4.875,0-8.828,3.953-8.828,8.828v8.828H194.207z"/>
<path style="fill:#959CB3;" d="M247.172,251.586c38.94,0,70.621,31.681,70.621,70.621h17.655c0-48.676-39.604-88.276-88.276-88.276
	s-88.276,39.599-88.276,88.276h17.655C176.552,283.267,208.233,251.586,247.172,251.586z"/>
<g>
	<path style="fill:#707487;" d="M331.034,308.966c-7.313,0-13.241,5.929-13.241,13.241h26.483
		C344.276,314.893,338.347,308.966,331.034,308.966z"/>
	<circle style="fill:#707487;" cx="247.172" cy="238.345" r="13.241"/>
	<path style="fill:#707487;" d="M163.31,308.966c-7.313,0-13.241,5.929-13.241,13.241h26.483
		C176.552,314.893,170.623,308.966,163.31,308.966z"/>
</g>
<path style="fill:#FFFFFF;" d="M97.103,128H79.448c-4.875,0-8.828-3.953-8.828-8.828l0,0c0-4.875,3.953-8.828,8.828-8.828h17.655
	c4.875,0,8.828,3.953,8.828,8.828l0,0C105.931,124.047,101.978,128,97.103,128z"/>
<path style="fill:#FFEBC1;" d="M229.517,128h-97.103c-4.875,0-8.828-3.953-8.828-8.828l0,0c0-4.875,3.953-8.828,8.828-8.828h97.103
	c4.875,0,8.828,3.953,8.828,8.828l0,0C238.345,124.047,234.392,128,229.517,128z"/>
<path style="fill:#FFFFFF;" d="M97.103,163.31H79.448c-4.875,0-8.828-3.953-8.828-8.828l0,0c0-4.875,3.953-8.828,8.828-8.828h17.655
	c4.875,0,8.828,3.953,8.828,8.828l0,0C105.931,159.358,101.978,163.31,97.103,163.31z"/>
<path style="fill:#FFEBC1;" d="M194.207,163.31h-61.793c-4.875,0-8.828-3.953-8.828-8.828l0,0c0-4.875,3.953-8.828,8.828-8.828
	h61.793c4.875,0,8.828,3.953,8.828,8.828l0,0C203.034,159.358,199.082,163.31,194.207,163.31z"/>
<path style="fill:#FFFFFF;" d="M97.103,198.621H79.448c-4.875,0-8.828-3.953-8.828-8.828l0,0c0-4.875,3.953-8.828,8.828-8.828
	h17.655c4.875,0,8.828,3.953,8.828,8.828l0,0C105.931,194.668,101.978,198.621,97.103,198.621z"/>
<g>
	<path style="fill:#FFEBC1;" d="M167.724,198.621h-35.31c-4.875,0-8.828-3.953-8.828-8.828l0,0c0-4.875,3.953-8.828,8.828-8.828
		h35.31c4.875,0,8.828,3.953,8.828,8.828l0,0C176.552,194.668,172.599,198.621,167.724,198.621z"/>
	<path style="fill:#FFEBC1;" d="M256,163.31h-26.483c-4.875,0-8.828-3.953-8.828-8.828l0,0c0-4.875,3.953-8.828,8.828-8.828H256
		c4.875,0,8.828,3.953,8.828,8.828l0,0C264.828,159.358,260.875,163.31,256,163.31z"/>
</g>
<g>
</g>
<g>
</g>
<g>
</g>
<g>
</g>
<g>
</g>
<g>
</g>
<g>
</g>
<g>
</g>
<g>
</g>
<g>
</g>
<g>
</g>
<g>
</g>
<g>
</g>
<g>
</g>
<g>
</g>
</svg>
